<svg width="122" height="40" viewBox="0 0 122 40" fill="none" xmlns="http://www.w3.org/2000/svg">
<path d="M11.6445 20.0984L5.12785 26.762V36.1125H0V0H5.12785V20.2058L24.5709 0H30.4466L15.1699 16.2292L31.5149 36.1125H25.5324L11.6445 20.0984Z" fill="white"/>
<path d="M68.9053 33.2107L70.935 29.3415C73.2853 30.9537 76.9175 32.1359 80.4429 32.1359C85.0366 32.1359 86.8527 30.7387 86.8527 28.3742C86.8527 22.248 69.6531 27.5144 69.6531 16.6591C69.6531 11.7151 74.0331 8.4908 80.9771 8.4908C84.5025 8.4908 88.562 9.4581 90.9123 10.9628L88.7757 14.832C86.3186 13.2198 83.6478 12.6824 80.9771 12.6824C76.7039 12.6824 74.5673 14.2946 74.5673 16.4442C74.5673 22.8928 91.7669 17.6264 91.7669 28.2667C91.7669 33.2107 87.2801 36.3276 80.0156 36.3276C75.6356 36.435 71.1487 35.0378 68.9053 33.2107Z" fill="white"/>
<path d="M122 19.5609V36.1125H117.299V32.4582C115.697 34.9302 112.599 36.3274 108.326 36.3274C102.13 36.3274 98.2837 32.9956 98.2837 28.2666C98.2837 23.86 101.061 20.3132 109.18 20.3132H116.979V19.3459C116.979 15.1543 114.522 12.7898 109.715 12.7898C106.51 12.7898 103.198 13.972 101.061 15.6917L99.0315 11.9299C101.809 9.67291 105.869 8.38317 110.249 8.38317C117.834 8.49065 122 12.1449 122 19.5609ZM117.086 27.7292V23.86H109.501C104.587 23.86 103.198 25.7946 103.198 28.0516C103.198 30.7386 105.441 32.4582 109.18 32.4582C112.919 32.5657 115.911 30.9535 117.086 27.7292Z" fill="white"/>
<path d="M53.0947 28.9118V36.2203L56.1928 34.3932V27.0847L53.0947 28.9118Z" fill="white"/>
<path d="M61.6411 19.9909L48.9283 12.575L41.8776 8.4908L34.9336 20.6358L35.0404 32.0284L47.6464 39.4444L48.9283 38.6921V27.9443L54.5903 17.9489L60.3592 21.2807V32.0284L61.6411 31.2761V19.9909Z" fill="white"/>
</svg>
